<svg width="23" height="23" viewBox="0 0 23 23" fill="none" xmlns="http://www.w3.org/2000/svg">
<path d="M3.15321 4.81242C2.99114 4.81242 2.8357 4.74803 2.72109 4.63343C2.60649 4.51882 2.5421 4.36338 2.5421 4.20131C2.5421 4.03923 2.60649 3.88379 2.72109 3.76919C2.8357 3.65458 2.99114 3.5902 3.15321 3.5902H16.5977C16.7597 3.5902 16.9152 3.65458 17.0298 3.76919C17.1444 3.88379 17.2088 4.03923 17.2088 4.20131C17.2088 4.36338 17.1444 4.51882 17.0298 4.63343C16.9152 4.74803 16.7597 4.81242 16.5977 4.81242H3.15321ZM5.59766 2.36797C5.43558 2.36797 5.28014 2.30359 5.16554 2.18898C5.05093 2.07438 4.98655 1.91894 4.98655 1.75686C4.98655 1.59479 5.05093 1.43935 5.16554 1.32474C5.28014 1.21014 5.43558 1.14575 5.59766 1.14575H14.1532C14.3153 1.14575 14.4707 1.21014 14.5853 1.32474C14.6999 1.43935 14.7643 1.59479 14.7643 1.75686C14.7643 1.91894 14.6999 2.07438 14.5853 2.18898C14.4707 2.30359 14.3153 2.36797 14.1532 2.36797H5.59766ZM0.0976563 16.4235C0.0976563 16.9098 0.29081 17.3761 0.634627 17.7199C0.978444 18.0637 1.44476 18.2569 1.93099 18.2569H17.8199C18.3061 18.2569 18.7724 18.0637 19.1162 17.7199C19.4601 17.3761 19.6532 16.9098 19.6532 16.4235V7.86797C19.6532 7.38174 19.4601 6.91543 19.1162 6.57161C18.7724 6.22779 18.3061 6.03464 17.8199 6.03464H1.93099C1.44476 6.03464 0.978444 6.22779 0.634627 6.57161C0.29081 6.91543 0.0976563 7.38174 0.0976562 7.86797L0.0976563 16.4235ZM1.93099 17.0346C1.76891 17.0346 1.61347 16.9703 1.49887 16.8557C1.38426 16.741 1.31988 16.5856 1.31988 16.4235V7.86797C1.31988 7.7059 1.38426 7.55046 1.49887 7.43585C1.61347 7.32125 1.76891 7.25686 1.93099 7.25686H17.8199C17.982 7.25686 18.1374 7.32125 18.252 7.43585C18.3666 7.55046 18.431 7.7059 18.431 7.86797V16.4235C18.431 16.5856 18.3666 16.741 18.252 16.8557C18.1374 16.9703 17.982 17.0346 17.8199 17.0346H1.93099Z" fill="#686868"/>
<path d="M3.15321 4.81242C2.99114 4.81242 2.8357 4.74803 2.72109 4.63343C2.60649 4.51882 2.5421 4.36338 2.5421 4.20131C2.5421 4.03923 2.60649 3.88379 2.72109 3.76919C2.8357 3.65458 2.99114 3.5902 3.15321 3.5902H16.5977C16.7597 3.5902 16.9152 3.65458 17.0298 3.76919C17.1444 3.88379 17.2088 4.03923 17.2088 4.20131C17.2088 4.36338 17.1444 4.51882 17.0298 4.63343C16.9152 4.74803 16.7597 4.81242 16.5977 4.81242H3.15321ZM5.59766 2.36797C5.43558 2.36797 5.28014 2.30359 5.16554 2.18898C5.05093 2.07438 4.98655 1.91894 4.98655 1.75686C4.98655 1.59479 5.05093 1.43935 5.16554 1.32474C5.28014 1.21014 5.43558 1.14575 5.59766 1.14575H14.1532C14.3153 1.14575 14.4707 1.21014 14.5853 1.32474C14.6999 1.43935 14.7643 1.59479 14.7643 1.75686C14.7643 1.91894 14.6999 2.07438 14.5853 2.18898C14.4707 2.30359 14.3153 2.36797 14.1532 2.36797H5.59766ZM0.0976563 16.4235C0.0976563 16.9098 0.29081 17.3761 0.634627 17.7199C0.978444 18.0637 1.44476 18.2569 1.93099 18.2569H17.8199C18.3061 18.2569 18.7724 18.0637 19.1162 17.7199C19.4601 17.3761 19.6532 16.9098 19.6532 16.4235V7.86797C19.6532 7.38174 19.4601 6.91543 19.1162 6.57161C18.7724 6.22779 18.3061 6.03464 17.8199 6.03464H1.93099C1.44476 6.03464 0.978444 6.22779 0.634627 6.57161C0.29081 6.91543 0.0976563 7.38174 0.0976562 7.86797L0.0976563 16.4235ZM1.93099 17.0346C1.76891 17.0346 1.61347 16.9703 1.49887 16.8557C1.38426 16.741 1.31988 16.5856 1.31988 16.4235V7.86797C1.31988 7.7059 1.38426 7.55046 1.49887 7.43585C1.61347 7.32125 1.76891 7.25686 1.93099 7.25686H17.8199C17.982 7.25686 18.1374 7.32125 18.252 7.43585C18.3666 7.55046 18.431 7.7059 18.431 7.86797V16.4235C18.431 16.5856 18.3666 16.741 18.252 16.8557C18.1374 16.9703 17.982 17.0346 17.8199 17.0346H1.93099Z" fill="black" fill-opacity="0.2"/>
<path d="M3.15321 4.81242C2.99114 4.81242 2.8357 4.74803 2.72109 4.63343C2.60649 4.51882 2.5421 4.36338 2.5421 4.20131C2.5421 4.03923 2.60649 3.88379 2.72109 3.76919C2.8357 3.65458 2.99114 3.5902 3.15321 3.5902H16.5977C16.7597 3.5902 16.9152 3.65458 17.0298 3.76919C17.1444 3.88379 17.2088 4.03923 17.2088 4.20131C17.2088 4.36338 17.1444 4.51882 17.0298 4.63343C16.9152 4.74803 16.7597 4.81242 16.5977 4.81242H3.15321ZM5.59766 2.36797C5.43558 2.36797 5.28014 2.30359 5.16554 2.18898C5.05093 2.07438 4.98655 1.91894 4.98655 1.75686C4.98655 1.59479 5.05093 1.43935 5.16554 1.32474C5.28014 1.21014 5.43558 1.14575 5.59766 1.14575H14.1532C14.3153 1.14575 14.4707 1.21014 14.5853 1.32474C14.6999 1.43935 14.7643 1.59479 14.7643 1.75686C14.7643 1.91894 14.6999 2.07438 14.5853 2.18898C14.4707 2.30359 14.3153 2.36797 14.1532 2.36797H5.59766ZM0.0976563 16.4235C0.0976563 16.9098 0.29081 17.3761 0.634627 17.7199C0.978444 18.0637 1.44476 18.2569 1.93099 18.2569H17.8199C18.3061 18.2569 18.7724 18.0637 19.1162 17.7199C19.4601 17.3761 19.6532 16.9098 19.6532 16.4235V7.86797C19.6532 7.38174 19.4601 6.91543 19.1162 6.57161C18.7724 6.22779 18.3061 6.03464 17.8199 6.03464H1.93099C1.44476 6.03464 0.978444 6.22779 0.634627 6.57161C0.29081 6.91543 0.0976563 7.38174 0.0976562 7.86797L0.0976563 16.4235ZM1.93099 17.0346C1.76891 17.0346 1.61347 16.9703 1.49887 16.8557C1.38426 16.741 1.31988 16.5856 1.31988 16.4235V7.86797C1.31988 7.7059 1.38426 7.55046 1.49887 7.43585C1.61347 7.32125 1.76891 7.25686 1.93099 7.25686H17.8199C17.982 7.25686 18.1374 7.32125 18.252 7.43585C18.3666 7.55046 18.431 7.7059 18.431 7.86797V16.4235C18.431 16.5856 18.3666 16.741 18.252 16.8557C18.1374 16.9703 17.982 17.0346 17.8199 17.0346H1.93099Z" fill="black" fill-opacity="0.2"/>
<path d="M3.15321 4.81242C2.99114 4.81242 2.8357 4.74803 2.72109 4.63343C2.60649 4.51882 2.5421 4.36338 2.5421 4.20131C2.5421 4.03923 2.60649 3.88379 2.72109 3.76919C2.8357 3.65458 2.99114 3.5902 3.15321 3.5902H16.5977C16.7597 3.5902 16.9152 3.65458 17.0298 3.76919C17.1444 3.88379 17.2088 4.03923 17.2088 4.20131C17.2088 4.36338 17.1444 4.51882 17.0298 4.63343C16.9152 4.74803 16.7597 4.81242 16.5977 4.81242H3.15321ZM5.59766 2.36797C5.43558 2.36797 5.28014 2.30359 5.16554 2.18898C5.05093 2.07438 4.98655 1.91894 4.98655 1.75686C4.98655 1.59479 5.05093 1.43935 5.16554 1.32474C5.28014 1.21014 5.43558 1.14575 5.59766 1.14575H14.1532C14.3153 1.14575 14.4707 1.21014 14.5853 1.32474C14.6999 1.43935 14.7643 1.59479 14.7643 1.75686C14.7643 1.91894 14.6999 2.07438 14.5853 2.18898C14.4707 2.30359 14.3153 2.36797 14.1532 2.36797H5.59766ZM0.0976563 16.4235C0.0976563 16.9098 0.29081 17.3761 0.634627 17.7199C0.978444 18.0637 1.44476 18.2569 1.93099 18.2569H17.8199C18.3061 18.2569 18.7724 18.0637 19.1162 17.7199C19.4601 17.3761 19.6532 16.9098 19.6532 16.4235V7.86797C19.6532 7.38174 19.4601 6.91543 19.1162 6.57161C18.7724 6.22779 18.3061 6.03464 17.8199 6.03464H1.93099C1.44476 6.03464 0.978444 6.22779 0.634627 6.57161C0.29081 6.91543 0.0976563 7.38174 0.0976562 7.86797L0.0976563 16.4235ZM1.93099 17.0346C1.76891 17.0346 1.61347 16.9703 1.49887 16.8557C1.38426 16.741 1.31988 16.5856 1.31988 16.4235V7.86797C1.31988 7.7059 1.38426 7.55046 1.49887 7.43585C1.61347 7.32125 1.76891 7.25686 1.93099 7.25686H17.8199C17.982 7.25686 18.1374 7.32125 18.252 7.43585C18.3666 7.55046 18.431 7.7059 18.431 7.86797V16.4235C18.431 16.5856 18.3666 16.741 18.252 16.8557C18.1374 16.9703 17.982 17.0346 17.8199 17.0346H1.93099Z" fill="black" fill-opacity="0.2"/>
<path d="M22.0972 15.2013C22.0972 18.5764 19.3612 21.3124 15.9861 21.3124C12.611 21.3124 9.875 18.5764 9.875 15.2013C9.875 11.8262 12.611 9.09021 15.9861 9.09021C19.3612 9.09021 22.0972 11.8262 22.0972 15.2013Z" fill="white"/>
<path d="M15.0519 16.1269L18.3404 13.1069C18.418 13.0356 18.5085 13 18.612 13C18.7154 13 18.806 13.0356 18.8836 13.1069C18.9612 13.1782 19 13.2628 19 13.3608C19 13.4588 18.9612 13.5434 18.8836 13.6147L15.3235 16.8931C15.2459 16.9644 15.1553 17 15.0519 17C14.9484 17 14.8579 16.9644 14.7802 16.8931L13.1118 15.3608C13.0341 15.2895 12.997 15.2049 13.0002 15.1069C13.0034 15.0089 13.0438 14.9243 13.1215 14.853C13.1991 14.7817 13.2912 14.7461 13.3979 14.7461C13.5046 14.7461 13.5968 14.7817 13.6744 14.853L15.0519 16.1269Z" fill="#4BBF57"/>
<path d="M15.9861 21.3124C15.1407 21.3124 14.3463 21.152 13.6028 20.8312C12.8593 20.5103 12.2125 20.0749 11.6625 19.5249C11.1125 18.9749 10.6771 18.3282 10.3562 17.5847C10.0354 16.8411 9.875 16.0467 9.875 15.2013C9.875 14.356 10.0354 13.5615 10.3562 12.818C10.6771 12.0745 11.1125 11.4277 11.6625 10.8777C12.2125 10.3277 12.8593 9.89229 13.6028 9.57146C14.3463 9.25063 15.1407 9.09021 15.9861 9.09021C16.8315 9.09021 17.6259 9.25063 18.3694 9.57146C19.113 9.89229 19.7597 10.3277 20.3097 10.8777C20.8597 11.4277 21.2951 12.0745 21.616 12.818C21.9368 13.5615 22.0972 14.356 22.0972 15.2013C22.0972 16.0467 21.9368 16.8411 21.616 17.5847C21.2951 18.3282 20.8597 18.9749 20.3097 19.5249C19.7597 20.0749 19.113 20.5103 18.3694 20.8312C17.6259 21.152 16.8315 21.3124 15.9861 21.3124ZM15.9861 20.0902C17.3509 20.0902 18.5069 19.6166 19.4542 18.6694C20.4014 17.7222 20.875 16.5661 20.875 15.2013C20.875 13.8365 20.4014 12.6805 19.4542 11.7333C18.5069 10.786 17.3509 10.3124 15.9861 10.3124C14.6213 10.3124 13.4653 10.786 12.5181 11.7333C11.5708 12.6805 11.0972 13.8365 11.0972 15.2013C11.0972 16.5661 11.5708 17.7222 12.5181 18.6694C13.4653 19.6166 14.6213 20.0902 15.9861 20.0902Z" fill="#4BBF57"/>
</svg>
