<svg width="17" height="16" viewBox="0 0 17 16" fill="none" xmlns="http://www.w3.org/2000/svg">
<path d="M1.61905 10.7216C1.1873 10.7216 0.809524 10.5567 0.485714 10.2268C0.161905 9.89691 0 9.51203 0 9.07216V7.42268C0 7.32646 0.0134921 7.22337 0.0404762 7.1134C0.0674603 7.00344 0.0944444 6.90034 0.121429 6.80412L2.55 0.989691C2.67143 0.714777 2.87381 0.4811 3.15714 0.28866C3.44048 0.0962199 3.7373 0 4.04762 0H12.9524V10.7216L8.09524 15.6289C7.89286 15.8351 7.65337 15.9553 7.37679 15.9897C7.1002 16.0241 6.83373 15.9725 6.57738 15.8351C6.32103 15.6976 6.13214 15.5052 6.01071 15.2577C5.88929 15.0103 5.8623 14.756 5.92976 14.4948L6.84048 10.7216H1.61905ZM11.3333 10.0206V1.64948H4.04762L1.61905 7.42268V9.07216H8.90476L7.8119 13.6082L11.3333 10.0206ZM15.381 0C15.8262 0 16.2073 0.161512 16.5244 0.484536C16.8415 0.80756 17 1.19588 17 1.64948V9.07216C17 9.52577 16.8415 9.91409 16.5244 10.2371C16.2073 10.5601 15.8262 10.7216 15.381 10.7216H12.9524V9.07216H15.381V1.64948H12.9524V0H15.381Z" fill="#686868"/>
</svg>
