<svg height="106" id="fork" viewBox="0 0 18 106" width="18" xmlns="http://www.w3.org/2000/svg">
  <path
    d="M3.51454 0.473635C3.04542 2.41987 0.742459 16.4784 0.294661 19.936C-0.281079 24.5325 -0.0251948 27.5554 1.16893 30.1849C1.87262 31.7584 2.70424 32.8558 4.77264 34.9262C7.9712 38.1354 8.16311 38.8601 8.01384 46.7072C7.77928 57.0181 7.4381 61.4903 4.98588 85.1765C4.00499 94.7213 3.79175 99.3592 4.23955 101.699C4.75132 104.266 6.56383 105.84 9.18665 105.985C11.8734 106.15 13.6646 104.97 14.411 102.568C15.3492 99.5041 14.4536 87.5368 11.6175 65.3414C10.8712 59.482 10.3595 49.9578 10.4661 43.705L10.53 39.0465L11.255 37.7006C11.7455 36.7896 12.5345 35.8372 13.7499 34.6985C15.7757 32.7936 17.0551 31.0752 17.6095 29.5637C18.1639 28.0109 18.1213 21.3854 17.5242 18.0312C17.2897 16.7268 16.6073 12.6687 15.9889 9.02467C14.6882 1.30182 14.4536 0.183769 14.1124 0.0802457C13.622 -0.0853918 13.558 1.61239 13.7073 10.9916C13.8565 19.2735 13.8352 20.4744 13.5367 20.7021C13.3234 20.8884 13.1102 20.8884 12.8117 20.7435C12.2999 20.4744 12.2146 19.6876 11.9161 11.9233C11.7028 6.12601 11.4043 1.96437 11.1484 0.659977C10.9992 -0.0439824 10.5727 -0.188915 10.2955 0.370111C10.1889 0.577158 10.0609 5.11148 9.99695 10.474C9.93298 15.8158 9.80503 20.3294 9.71974 20.4537C9.42121 20.9092 8.71752 20.7642 8.50429 20.2052C8.39767 19.9153 8.20576 15.6502 8.07781 10.7432C7.94987 5.83615 7.75796 1.44675 7.67266 1.01196C7.35281 -0.333848 7.09692 -0.333848 6.77707 0.991252C6.58515 1.81944 5.94544 14.677 5.94544 18.0519C5.94544 19.7704 5.88147 20.081 5.51897 20.4122C4.98588 20.8884 4.53808 20.7021 4.38881 19.9567C4.32484 19.6462 4.30352 15.6502 4.36749 11.0951C4.43146 6.54011 4.41014 2.21283 4.30352 1.48816C4.13293 0.14236 3.70645 -0.395962 3.51454 0.473635Z"
  />
</svg>
