<svg height="106" viewBox="0 0 12 106" width="12" xmlns="http://www.w3.org/2000/svg">
  <path
    d="M10.0313 0.0120468C8.49521 0.285207 6.209 4.65576 4.60151 10.4634C2.27958 18.7176 0.969773 30.8553 0.898329 44.3708C0.874514 49.644 0.934051 50.7485 1.20792 51.0217C1.56514 51.378 2.58917 51.758 3.85135 51.9955C4.29192 52.0787 4.99445 52.2568 5.41121 52.3875C6.93535 52.8863 6.87581 52.4468 6.76864 61.9599C6.6972 66.7105 6.60194 73.6939 6.5305 77.4706C6.19709 96.0693 6.08993 104.395 6.18518 104.68C6.23281 104.87 6.45905 105.19 6.68529 105.416C7.51881 106.247 10.3766 106.176 11.2577 105.297C11.6268 104.929 11.6506 103.979 11.4839 94.8579C11.222 80.416 11.1624 76.6987 11.0434 71.3067C10.6742 52.9575 10.6981 42.7675 11.1267 21.7223C11.4839 3.78878 11.5078 1.65101 11.3411 1.15219C11.1029 0.392095 10.5552 -0.0829653 10.0313 0.0120468Z"
  />
</svg>
