<svg width="17" height="16" viewBox="0 0 17 16" fill="none" xmlns="http://www.w3.org/2000/svg">
<path d="M15.381 5.27835C15.8127 5.27835 16.1905 5.4433 16.5143 5.7732C16.8381 6.10309 17 6.48797 17 6.92783V8.57732C17 8.67354 16.9865 8.77663 16.9595 8.8866C16.9325 8.99656 16.9056 9.09966 16.8786 9.19588L14.45 15.0103C14.3286 15.2852 14.1262 15.5189 13.8429 15.7113C13.5595 15.9038 13.2627 16 12.9524 16H4.04762V5.27835L8.90476 0.371134C9.10714 0.164948 9.34663 0.0446735 9.62321 0.0103093C9.8998 -0.024055 10.1663 0.0274914 10.4226 0.164948C10.679 0.302405 10.8679 0.494845 10.9893 0.742268C11.1107 0.989691 11.1377 1.24399 11.0702 1.50515L10.1595 5.27835H15.381ZM5.66667 5.97938V14.3505H12.9524L15.381 8.57732V6.92783H8.09524L9.1881 2.39175L5.66667 5.97938ZM1.61905 16C1.17381 16 0.792659 15.8385 0.475595 15.5155C0.158532 15.1924 0 14.8041 0 14.3505V6.92783C0 6.47423 0.158532 6.08591 0.475595 5.76289C0.792659 5.43986 1.17381 5.27835 1.61905 5.27835H4.04762V6.92783H1.61905V14.3505H4.04762V16H1.61905Z" fill="#686868"/>
</svg>
