<svg width="22" height="22" viewBox="0 0 22 22" fill="none" xmlns="http://www.w3.org/2000/svg">
<path d="M22 1.11108L20.8889 0L0 20.8889L1.11108 22L2.68251 20.4286H18.8571C19.2737 20.428 19.6731 20.2623 19.9677 19.9677C20.2623 19.6731 20.428 19.2737 20.4286 18.8571V2.68251L22 1.11108ZM18.8571 18.8571H4.25394L10.3769 12.7341L12.246 14.603C12.5407 14.8977 12.9404 15.0633 13.3571 15.0633C13.7739 15.0633 14.1736 14.8977 14.4683 14.603L15.7143 13.3571L18.8571 16.4979V18.8571ZM18.8571 14.275L16.8254 12.2432C16.5307 11.9485 16.131 11.783 15.7143 11.783C15.2975 11.783 14.8978 11.9485 14.6031 12.2432L13.3571 13.4893L11.4895 11.6216L18.8571 4.25394V14.275Z" fill="#7A7A7A"/>
<path d="M3.14284 15.7143V13.3571L7.07141 9.43123L8.15043 10.5102L9.26293 9.39768L8.18257 8.31732C7.88787 8.02263 7.48817 7.85707 7.07141 7.85707C6.65465 7.85707 6.25495 8.02263 5.96025 8.31732L3.14284 11.1348V3.14284H15.7143V1.57141H3.14284C2.7262 1.57183 2.32674 1.73752 2.03213 2.03213C1.73752 2.32674 1.57183 2.7262 1.57141 3.14284V15.7143H3.14284Z" fill="#7A7A7A"/>
</svg>
